<svg xmlns="http://www.w3.org/2000/svg" width="168.59" height="168.43" viewBox="0 0 168.59 168.43">
  <defs>
    <style>
      .cls-1 {
        fill: #001534;
      }

      .cls-2 {
        fill: #00e167;
      }
    </style>
  </defs>
  <g id="Livello_2" data-name="Livello 2">
    <g id="Livello_1-2" data-name="Livello 1">
      <g>
        <path class="cls-1" d="M72.19,48.05C65.71,54.91,61.78,63.16,58.7,71.87a123.74,123.74,0,0,0-6.18,27.27c-.24,2.17-1,2.93-3.22,3-8.86.13-17.67-.09-25.94-3.72s-15.5-8.91-20.06-17C-2.72,70.6-.34,56.1,9.08,48.27a38.8,38.8,0,0,1,11.44-6.6c19.49-7.07,39-14,58.71-20.55,20.68-6.88,41.55-13.21,62.31-19.88,7.66-2.46,14.7-1.35,20.54,4.06,6,5.61,7.95,12.83,5.42,20.78-9.24,29-18.46,58.05-28,87-4.17,12.63-8.84,25.11-13.75,37.47-3.83,9.64-10.89,16-21.48,17.57s-18.93-2.37-26.06-10.26c-10.31-11.42-12.35-25-11.75-39.56.09-2.12,1.38-2,2.72-2.2,11.89-1.55,23.5-4.18,34.52-9.07a54.39,54.39,0,0,0,17.74-12c10.42-10.92,12.17-28.5,4-41.17C115,37.83,94.7,33.16,78.52,43.16A72.19,72.19,0,0,0,72.19,48.05Z"/>
        <path class="cls-2" d="M66.26,101.91c.41-2.64.74-5.12,1.19-7.59C69.33,84.05,72,74,77.23,64.88c3.83-6.64,8.86-11.78,16.91-12.66s14.84,2.07,19.2,9c4.51,7.2,4.31,14.6-.32,21.82-2.84,4.42-7.11,7.13-11.6,9.42-10.69,5.47-22.24,8-34.06,9.59A6.73,6.73,0,0,1,66.26,101.91Z"/>
      </g>
    </g>
  </g>
</svg>
