<svg id="Livello_1" data-name="Livello 1" xmlns="http://www.w3.org/2000/svg" width="232.46mm" height="59.42mm" viewBox="0 0 658.93 168.43">
  <defs>
    <style>
      .cls-1 {
        fill: #00e167;
      }
    </style>
  </defs>
  <g>
    <g>
      <path class="cls-1" d="M270.13,284.38c-6.48,6.86-10.42,15.1-13.49,23.81a122.61,122.61,0,0,0-6.18,27.27c-.25,2.18-1,2.93-3.22,3-8.86.13-17.67-.09-25.94-3.72s-15.5-8.92-20.06-17c-6-10.73-3.65-25.23,5.77-33.07A39.25,39.25,0,0,1,218.45,278c19.49-7.07,39-14,58.71-20.55,20.69-6.88,41.55-13.22,62.31-19.88,7.67-2.46,14.71-1.35,20.54,4.06,6.05,5.61,7.95,12.83,5.42,20.78-9.24,29-18.46,58-28,87-4.16,12.63-8.83,25.11-13.74,37.47-3.83,9.64-10.9,16-21.48,17.58s-18.94-2.37-26.06-10.26c-10.32-11.43-12.36-25-11.75-39.56.08-2.13,1.38-2,2.71-2.21,11.9-1.55,23.51-4.17,34.52-9.06a54.5,54.5,0,0,0,17.74-12c10.42-10.92,12.18-28.5,3.95-41.17-10.41-16-30.68-20.71-46.87-10.71A73.57,73.57,0,0,0,270.13,284.38Z" transform="translate(-197.94 -236.33)"/>
      <path class="cls-1" d="M264.19,338.24c.42-2.64.75-5.12,1.2-7.59,1.88-10.27,4.5-20.3,9.78-29.44,3.83-6.65,8.85-11.79,16.91-12.66s14.83,2.07,19.2,9c4.51,7.19,4.31,14.6-.32,21.82-2.84,4.42-7.12,7.12-11.61,9.42-10.69,5.47-22.24,8-34.05,9.58A5.51,5.51,0,0,1,264.19,338.24Z" transform="translate(-197.94 -236.33)"/>
    </g>
    <g>
      <path class="cls-1" d="M395,352V273h20.23v31L414.18,323l.21,19.06V352Zm36.31,1q-7.77,0-12.94-3.19a19.19,19.19,0,0,1-7.71-9.8q-2.57-6.6-2.56-16.82t2.71-16.82a20.19,20.19,0,0,1,7.94-9.85,23.23,23.23,0,0,1,12.56-3.25,28.5,28.5,0,0,1,14.32,3.67,27,27,0,0,1,10.22,10.33,35.18,35.18,0,0,1,0,31.73,27,27,0,0,1-10.22,10.33A28.4,28.4,0,0,1,431.32,353Zm-4.26-16.08a11.88,11.88,0,0,0,6.12-1.59,11.64,11.64,0,0,0,4.37-4.74,15.69,15.69,0,0,0,1.65-7.4,15.5,15.5,0,0,0-1.65-7.56,11.91,11.91,0,0,0-21,0,15.5,15.5,0,0,0-1.65,7.56,15.69,15.69,0,0,0,1.65,7.4,11.64,11.64,0,0,0,4.37,4.74A11.88,11.88,0,0,0,427.06,336.88Z" transform="translate(-197.94 -236.33)"/>
      <path class="cls-1" d="M498,353a35.86,35.86,0,0,1-16.82-3.83,29.3,29.3,0,0,1-11.56-10.6,30.46,30.46,0,0,1,0-30.87,29.3,29.3,0,0,1,11.56-10.6,39,39,0,0,1,33.69,0,29.18,29.18,0,0,1,11.61,10.6,30.46,30.46,0,0,1,0,30.87,29.18,29.18,0,0,1-11.61,10.6A36.18,36.18,0,0,1,498,353Zm0-16.08a11.88,11.88,0,0,0,6.12-1.59,11.7,11.7,0,0,0,4.37-4.74,16,16,0,0,0,1.65-7.51,15.23,15.23,0,0,0-1.65-7.45,11.91,11.91,0,0,0-21,0,15.23,15.23,0,0,0-1.65,7.45,16,16,0,0,0,1.65,7.51,11.64,11.64,0,0,0,4.37,4.74A11.88,11.88,0,0,0,498,336.88Z" transform="translate(-197.94 -236.33)"/>
      <path class="cls-1" d="M568.88,353a35.93,35.93,0,0,1-16.83-3.83,29.28,29.28,0,0,1-11.55-10.6,30.46,30.46,0,0,1,0-30.87,29.28,29.28,0,0,1,11.55-10.6,39,39,0,0,1,33.7,0,29.24,29.24,0,0,1,11.61,10.6,30.46,30.46,0,0,1,0,30.87,29.24,29.24,0,0,1-11.61,10.6A36.21,36.21,0,0,1,568.88,353Zm0-16.08a11.88,11.88,0,0,0,6.12-1.59,11.61,11.61,0,0,0,4.36-4.74A16,16,0,0,0,581,323a15.23,15.23,0,0,0-1.65-7.45,11.89,11.89,0,0,0-21,0,15.23,15.23,0,0,0-1.65,7.45,16,16,0,0,0,1.65,7.51,11.61,11.61,0,0,0,4.36,4.74A11.89,11.89,0,0,0,568.88,336.88Z" transform="translate(-197.94 -236.33)"/>
      <path class="cls-1" d="M610.82,352V273h20.23v79Z" transform="translate(-197.94 -236.33)"/>
      <path class="cls-1" d="M644.15,352V273h20.23v31L663.31,323l.21,19.06V352Zm36.3,1q-7.77,0-12.93-3.19a19.16,19.16,0,0,1-7.72-9.8q-2.56-6.6-2.56-16.82T660,306.33a20.18,20.18,0,0,1,7.93-9.85,23.25,23.25,0,0,1,12.56-3.25,28.48,28.48,0,0,1,14.32,3.67A27,27,0,0,1,705,307.23,35.18,35.18,0,0,1,705,339a26.91,26.91,0,0,1-10.22,10.33A28.37,28.37,0,0,1,680.45,353Zm-4.26-16.08a12,12,0,0,0,6.13-1.59,11.68,11.68,0,0,0,4.36-4.74,15.69,15.69,0,0,0,1.65-7.4,15.5,15.5,0,0,0-1.65-7.56,11.89,11.89,0,0,0-21,0,15.39,15.39,0,0,0-1.65,7.56,15.57,15.57,0,0,0,1.65,7.4,11.61,11.61,0,0,0,4.36,4.74A11.88,11.88,0,0,0,676.19,336.88Z" transform="translate(-197.94 -236.33)"/>
      <path class="cls-1" d="M755.72,293.23A26.26,26.26,0,0,1,767.86,296a20.19,20.19,0,0,1,8.57,8.41q3.15,5.64,3.14,14.59v33H759.24V322.3c0-4.12-.84-7.12-2.5-9a8.6,8.6,0,0,0-6.76-2.82,12.34,12.34,0,0,0-6,1.44,9.8,9.8,0,0,0-4.15,4.42,17.72,17.72,0,0,0-1.49,7.87V352H718.14V294.19h19.38v16.5l-3.83-4.79a22.86,22.86,0,0,1,9-9.42A25.87,25.87,0,0,1,755.72,293.23Z" transform="translate(-197.94 -236.33)"/>
      <path class="cls-1" d="M792.24,352V273h20.23v31L811.41,323l.21,19.06V352Zm36.31,1q-7.77,0-12.94-3.19a19.26,19.26,0,0,1-7.72-9.8q-2.55-6.6-2.55-16.82t2.71-16.82a20.19,20.19,0,0,1,7.94-9.85,23.23,23.23,0,0,1,12.56-3.25,28.5,28.5,0,0,1,14.32,3.67,27,27,0,0,1,10.22,10.33,35.18,35.18,0,0,1,0,31.73,27,27,0,0,1-10.22,10.33A28.4,28.4,0,0,1,828.55,353Zm-4.26-16.08a11.88,11.88,0,0,0,6.12-1.59,11.64,11.64,0,0,0,4.37-4.74,15.69,15.69,0,0,0,1.65-7.4,15.5,15.5,0,0,0-1.65-7.56,11.91,11.91,0,0,0-21,0,15.5,15.5,0,0,0-1.65,7.56,15.69,15.69,0,0,0,1.65,7.4,11.64,11.64,0,0,0,4.37,4.74A11.88,11.88,0,0,0,824.29,336.88Z" transform="translate(-197.94 -236.33)"/>
    </g>
  </g>
</svg>
